<svg xmlns="http://www.w3.org/2000/svg" viewBox="0 0 1200 900" role="img" aria-label="City light placeholder">
  <defs>
    <linearGradient id="sky" x1="0" y1="0" x2="0" y2="1">
      <stop offset="0" stop-color="#5c6f75"/>
      <stop offset=".53" stop-color="#d8a77f"/>
      <stop offset="1" stop-color="#704e43"/>
    </linearGradient>
    <linearGradient id="building" x1="0" y1="0" x2="0" y2="1">
      <stop offset="0" stop-color="#252c30"/>
      <stop offset="1" stop-color="#111719"/>
    </linearGradient>
    <filter id="grain"><feTurbulence baseFrequency=".75" numOctaves="2" stitchTiles="stitch"/><feComponentTransfer><feFuncA type="table" tableValues="0 .055"/></feComponentTransfer></filter>
  </defs>
  <rect width="1200" height="900" fill="url(#sky)"/>
  <circle cx="905" cy="268" r="84" fill="#f6d5ad" opacity=".6"/>
  <path d="M0 670h1200v230H0z" fill="#20282b"/>
  <g fill="url(#building)">
    <path d="M60 348h130v354H60z"/><path d="M205 257h167v445H205z"/><path d="M386 395h128v307H386z"/><path d="M531 213h177v489H531z"/><path d="M730 330h136v372H730z"/><path d="M884 270h122v432H884z"/><path d="M1022 385h154v317h-154z"/>
  </g>
  <g fill="#f0bd7e" opacity=".75">
    <rect x="236" y="304" width="22" height="12"/><rect x="280" y="304" width="22" height="12"/><rect x="323" y="304" width="22" height="12"/><rect x="236" y="354" width="22" height="12"/><rect x="280" y="354" width="22" height="12"/><rect x="323" y="354" width="22" height="12"/><rect x="571" y="264" width="28" height="15"/><rect x="622" y="264" width="28" height="15"/><rect x="571" y="319" width="28" height="15"/><rect x="622" y="319" width="28" height="15"/><rect x="571" y="374" width="28" height="15"/><rect x="622" y="374" width="28" height="15"/><rect x="921" y="320" width="24" height="12"/><rect x="962" y="320" width="24" height="12"/><rect x="921" y="365" width="24" height="12"/><rect x="962" y="365" width="24" height="12"/>
  </g>
  <rect width="1200" height="900" filter="url(#grain)" opacity=".45"/>
</svg>
